<svg version="1.1" id="Layer_1" xmlns="http://www.w3.org/2000/svg" xmlns:xlink="http://www.w3.org/1999/xlink" x="0px" y="0px"
	 width="100%" viewBox="0 0 1507 599" enable-background="new 0 0 1507 599" xml:space="preserve">

<path fill="#010101" opacity="1.000000" stroke="none"
	d="
M1355.912109,358.999756
	C1355.912109,333.508148 1355.921265,308.516479 1355.907837,283.524780
	C1355.902100,272.933594 1351.927124,267.974762 1341.384155,267.172211
	C1332.714355,266.512238 1323.954346,267.037598 1315.112427,267.037598
	C1315.112427,304.910950 1315.112427,341.696564 1315.112427,378.784912
	C1304.479126,378.784912 1293.908569,378.784912 1282.762573,378.784912
	C1282.762573,377.049133 1282.762573,375.287811 1282.762573,373.526459
	C1282.762573,344.369476 1282.763062,315.212524 1282.762451,286.055542
	C1282.762207,272.343262 1279.603027,268.265442 1266.115967,266.915070
	C1258.279175,266.130402 1250.299316,266.772369 1242.099243,266.772369
	C1242.099243,304.910980 1242.099243,341.687286 1242.099243,378.775269
	C1231.074097,378.775269 1220.340454,378.775269 1209.308350,378.775269
	C1207.669434,333.432617 1211.456177,287.832825 1206.449951,241.730438
	C1216.701904,241.081635 1226.740967,240.446289 1237.024414,239.795471
	C1238.168091,243.500015 1239.238281,246.966339 1240.027344,249.522232
	C1250.044312,246.446609 1259.797241,242.327896 1269.950073,240.694550
	C1277.909302,239.414093 1286.636719,240.090714 1294.506104,242.013000
	C1300.203491,243.404709 1305.054443,248.261658 1311.045776,252.056534
	C1320.198242,246.647202 1331.348511,241.888031 1343.533936,240.436234
	C1349.762573,239.694153 1356.249390,239.431717 1362.428589,240.304123
	C1376.731445,242.323410 1385.493530,251.625443 1387.956421,266.429840
	C1388.635620,270.513123 1389.028564,274.693420 1389.039673,278.830566
	C1389.126221,311.152924 1389.087769,343.475616 1389.087769,375.798187
	C1389.087769,376.753906 1389.087769,377.709625 1389.087769,378.874664
	C1377.945435,378.874664 1367.195923,378.874664 1355.912109,378.874664
	C1355.912109,372.373260 1355.912109,365.936432 1355.912109,358.999756
z"/>
<path fill="#010101" opacity="1.000000" stroke="none"
	d="
M520.243408,195.120850
	C534.300171,194.645432 547.931519,193.774628 561.538147,194.063629
	C572.906494,194.305099 583.946167,197.166351 593.779114,203.200653
	C618.766357,218.534866 618.808167,256.118164 593.888245,272.570343
	C590.305115,274.936005 586.334900,276.715454 582.008972,279.055511
	C583.456848,279.453857 584.609741,279.769592 585.761841,280.088257
	C620.379578,289.662689 626.204895,322.059479 615.336548,346.702759
	C606.666748,366.360809 589.699280,375.199768 569.685364,379.015015
	C547.970764,383.154510 526.285156,381.200623 504.682251,377.641663
	C502.240936,377.239471 499.810822,376.769531 497.169006,376.293854
	C497.169006,316.476898 497.169006,256.909119 497.169006,197.405746
	C504.735840,196.677765 512.271545,195.952774 520.243408,195.120850
M581.945435,313.732269
	C576.684082,299.455383 564.519714,295.213654 551.301880,292.799316
	C551.301880,285.206177 551.301880,277.813812 551.301880,271.099976
	C556.169312,269.212128 560.646729,267.876160 564.751709,265.802795
	C574.282532,260.988922 577.206726,252.415207 576.708252,242.460205
	C576.205078,232.410095 571.580200,225.201599 561.532532,221.960968
	C552.109375,218.921738 542.474304,218.215942 532.601868,218.207962
	C532.601868,262.945526 532.601868,307.268738 532.601868,352.251465
	C545.352234,352.992706 557.765747,353.871643 570.194702,354.273956
	C572.146118,354.337097 574.891052,352.733704 576.039551,351.058167
	C583.694031,339.890289 585.640442,327.614532 581.945435,313.732269
z"/>
<path fill="#010101" opacity="1.000000" stroke="none"
	d="
M254.545258,380.075684
	C242.760544,380.087982 231.431030,379.994019 220.104980,380.150757
	C216.989456,380.193878 215.559601,379.497498 214.724792,376.115356
	C211.114410,361.487732 207.078735,346.965057 203.177689,332.328735
	C202.306458,332.231934 201.672165,332.100189 201.037811,332.099854
	C181.722778,332.088928 162.407745,332.090973 142.610352,332.090973
	C138.441574,348.095398 134.286621,364.046692 130.145126,379.946381
	C118.208153,379.946381 106.735863,379.946381 94.916092,379.946381
	C113.387177,315.523834 131.794037,251.325317 150.046921,187.663803
	C166.471588,186.201202 182.494888,184.774338 199.078354,183.297592
	C202.830109,196.180923 206.662918,209.343735 210.496353,222.506378
	C225.239700,273.129822 239.996140,323.749481 254.673035,374.392181
	C255.186981,376.165619 254.910065,378.168213 254.545258,380.075684
M177.498840,304.776031
	C183.552124,304.776031 189.605408,304.776031 196.080170,304.776031
	C188.317734,275.255768 180.766708,246.539520 173.215683,217.823273
	C172.943878,217.892609 172.672073,217.961945 172.400269,218.031281
	C164.868774,246.795776 157.337296,275.560272 149.687653,304.776031
	C159.200119,304.776031 167.849670,304.776031 177.498840,304.776031
z"/>
<path fill="#020202" opacity="1.000000" stroke="none"
	d="
M856.477905,369.555908
	C857.735840,367.966888 858.505676,366.235382 859.836182,365.428406
	C866.657654,361.290894 868.266663,354.610199 869.476440,347.448944
	C870.607910,340.751556 872.531433,334.188599 873.685242,327.493896
	C873.967285,325.857269 873.159546,323.195160 871.911743,322.259369
	C855.544067,309.984100 851.308105,293.356934 855.330811,274.371094
	C859.415466,255.092850 872.806396,244.717834 891.413757,241.029709
	C905.318909,238.273590 919.180725,238.955276 932.515137,244.715088
	C934.250122,245.464523 936.723022,245.159653 938.670837,244.646927
	C946.346802,242.626404 953.949585,240.328003 962.093018,237.984985
	C964.243835,242.648560 966.361328,247.239777 968.674011,252.254242
	C962.785461,255.411270 957.148560,258.433380 951.163574,261.642059
	C956.691467,272.328766 958.133484,283.679779 955.663879,295.084320
	C951.506226,314.284698 938.214294,324.731995 919.809326,328.837952
	C911.804993,330.623627 903.423035,330.716522 894.680786,331.634064
	C894.680786,335.213318 894.680786,339.718994 894.680786,344.350342
	C906.136658,346.188477 917.844116,347.498413 929.261169,350.088531
	C937.589539,351.977966 945.924805,354.770630 953.558228,358.566132
	C964.512634,364.012878 968.537537,374.883118 965.487976,386.865143
	C961.993103,400.596924 953.101135,410.227692 941.492065,417.488922
	C922.787048,429.188507 902.482971,433.226532 880.893677,428.082764
	C853.078186,421.455597 841.865662,394.564819 856.477905,369.555908
M895.788086,258.005798
	C893.927490,259.220184 891.118958,260.010742 890.356445,261.716125
	C884.307373,275.245605 882.880066,289.145905 888.602722,303.203735
	C890.643921,308.217834 894.257568,311.683136 899.726135,313.018829
	C909.361816,315.372375 917.745667,311.318115 922.017029,301.791412
	C925.492798,294.039001 926.083008,285.890991 925.068054,277.459229
	C923.056885,260.751434 913.199097,253.832657 895.788086,258.005798
M890.555237,369.152496
	C888.818176,369.438354 886.758972,369.223480 885.400269,370.097473
	C879.797119,373.701569 876.334290,385.380737 878.252869,393.155304
	C879.879211,399.745331 885.782654,405.045685 893.285156,405.849609
	C897.854980,406.339294 902.568359,406.317108 907.139160,405.814331
	C921.382690,404.247528 934.078735,392.950134 936.581848,379.807709
	C922.180420,373.608582 906.950562,370.794586 890.555237,369.152496
z"/>
<path fill="#020202" opacity="1.000000" stroke="none"
	d="
M1137.416992,265.999817
	C1137.416992,257.702942 1137.416992,249.906097 1137.416992,241.939087
	C1148.399292,241.939087 1158.876587,241.939087 1169.665283,241.939087
	C1172.030273,287.400665 1166.203735,333.234070 1174.626587,379.058014
	C1163.621460,379.725128 1153.255493,380.353516 1142.657349,380.995972
	C1141.391968,376.083496 1140.202148,371.464539 1139.287598,367.914124
	C1130.255981,371.821106 1121.612183,376.671082 1112.335938,379.214478
	C1105.181396,381.176147 1097.076172,381.378113 1089.670288,380.356812
	C1074.751587,378.299530 1066.489136,369.332977 1064.055298,354.479950
	C1063.385742,350.393860 1063.052490,346.207458 1063.041870,342.065826
	C1062.960571,310.402008 1062.997192,278.737854 1062.997192,247.073822
	C1062.997192,245.443100 1062.997070,243.812363 1062.997070,241.972748
	C1074.113770,241.972748 1084.844238,241.972748 1096.002930,241.972748
	C1096.002930,243.919464 1096.002808,245.712509 1096.002808,247.505539
	C1096.002808,277.336395 1095.997437,307.167267 1096.005737,336.998138
	C1096.008911,348.517395 1099.841187,352.804535 1111.436768,354.175873
	C1119.552856,355.135712 1127.257324,353.446716 1134.855591,350.654327
	C1137.995605,349.500427 1137.408691,347.230804 1137.409668,344.993378
	C1137.420776,318.828857 1137.416870,292.664337 1137.416992,265.999817
z"/>
<path fill="#0291F5" opacity="1.000000" stroke="none"
	d="
M446.673401,395.079468
	C447.585022,404.137421 447.036865,404.707947 438.544647,405.065765
	C432.396637,405.324860 426.247314,405.673889 420.117401,406.201080
	C415.805847,406.571930 414.346466,405.294983 414.521606,400.595276
	C414.960236,388.824432 414.666382,377.026245 414.666382,364.661163
	C412.850616,364.661163 411.077423,364.646271 409.304535,364.663483
	C389.990875,364.850739 370.677124,365.031647 351.363708,365.240997
	C345.888641,365.300323 344.865112,364.379059 344.754211,359.029633
	C344.750763,358.863098 344.773743,358.693634 344.750732,358.530273
	C342.865509,345.138031 347.194794,334.134521 355.206696,323.147095
	C373.928589,297.472229 391.456329,270.924164 409.322662,244.631165
	C411.348877,241.649231 413.509094,240.574249 417.065826,240.668411
	C426.520813,240.918747 435.986816,240.753448 445.549103,240.753448
	C445.549103,272.720886 445.549103,304.293274 445.549103,336.753479
	C451.385498,336.753479 457.464325,336.742859 463.543091,336.756531
	C469.304871,336.769501 470.327148,337.754333 469.978027,343.430969
	C469.540894,350.539032 468.944305,357.637268 468.393127,365.054993
	C460.788574,365.054993 453.530029,365.054993 446.664642,365.054993
	C446.664642,375.146118 446.664642,384.881958 446.673401,395.079468
M407.427643,336.771851
	C410.178558,336.771851 412.929474,336.771851 415.597534,336.771851
	C415.597534,318.101013 415.597534,300.231781 415.597534,282.362518
	C415.106720,282.093323 414.615906,281.824127 414.125122,281.554932
	C401.212830,299.439423 389.071106,317.867554 376.033295,336.771729
	C386.899475,336.771729 396.672119,336.771729 407.427643,336.771851
z"/>
<path fill="#020202" opacity="1.000000" stroke="none"
	d="
M734.695496,249.267914
	C747.364807,259.091156 751.255920,272.661713 751.862427,287.355774
	C752.209717,295.769165 751.150635,304.240601 750.680237,313.567413
	C725.308289,314.588013 700.581543,315.582642 674.884460,316.616333
	C676.370605,323.034149 677.165039,329.839264 679.536194,336.041595
	C685.500610,351.643341 698.850281,356.134613 713.938965,356.817291
	C724.234314,357.283112 734.567688,356.906403 745.218445,356.906403
	C745.218445,362.591858 745.307678,368.171844 745.114319,373.742096
	C745.087830,374.504822 743.769470,375.646942 742.855408,375.892578
	C719.784058,382.092804 696.676697,384.382690 673.972778,374.662231
	C663.010925,369.969055 654.862122,361.655579 650.248352,350.770081
	C638.899536,323.994354 638.002197,296.715576 650.115417,270.049622
	C659.030640,250.423843 675.645996,240.983902 696.953979,239.796249
	C710.341431,239.050064 723.197754,240.817108 734.695496,249.267914
M719.646301,294.991119
	C719.729187,289.848877 720.247864,284.667725 719.792725,279.573547
	C719.112549,271.960022 716.224121,265.232971 708.519775,262.179199
	C700.183105,258.874817 691.932312,259.639618 684.122375,264.109131
	C683.333313,264.560669 682.673340,265.503571 682.295959,266.368042
	C678.036804,276.123871 675.615051,286.274750 675.614258,297.899597
	C690.329224,297.149963 704.688477,296.418427 719.646301,294.991119
z"/>
<path fill="#000000" opacity="1.000000" stroke="none"
	d="
M298.911957,184.915039
	C305.472107,184.318405 311.573853,183.727493 317.959106,183.109131
	C317.959106,248.577621 317.959106,313.951447 317.959106,379.706329
	C305.810913,379.706329 293.471008,379.706329 280.981079,379.706329
	C280.981079,315.430786 280.981079,251.238312 280.981079,186.676529
	C286.920288,186.079727 292.686890,185.500244 298.911957,184.915039
z"/>
<path fill="#010101" opacity="1.000000" stroke="none"
	d="
M784.870361,363.892639
	C784.120789,357.236420 782.883911,350.982880 782.853516,344.723419
	C782.669861,306.930084 782.841614,269.135162 782.718445,231.341293
	C782.676270,218.401062 782.126587,205.462509 781.789307,191.729095
	C791.796265,190.493134 802.568787,189.162628 813.909241,187.761963
	C814.360657,194.186203 815.163452,200.427658 815.179260,206.671127
	C815.289978,250.292389 815.237915,293.914062 815.237915,337.535614
	C815.237915,338.534576 815.224548,339.533752 815.240112,340.532471
	C815.431885,352.827728 818.027710,355.614838 830.271729,356.614014
	C832.391846,356.786987 834.521179,356.846191 837.086731,356.981110
	C837.086731,363.137207 837.182678,369.091980 836.990295,375.037415
	C836.958984,376.005829 835.826782,377.515015 834.908813,377.789703
	C824.938110,380.773560 814.736572,382.102875 804.377380,380.634430
	C794.615417,379.250610 787.990173,373.818665 784.870361,363.892639
z"/>
<path fill="#000000" opacity="1.000000" stroke="none"
	d="
M994.000488,343.000000
	C994.000488,309.079865 994.000488,275.659698 994.000488,242.002396
	C1005.068970,242.002396 1015.790283,242.002396 1026.756470,242.002396
	C1026.756470,287.576324 1026.756470,333.094421 1026.756470,378.849823
	C1015.940186,378.849823 1005.216492,378.849823 994.000488,378.849823
	C994.000488,367.026550 994.000488,355.263275 994.000488,343.000000
z"/>
<path fill="#020202" opacity="1.000000" stroke="none"
	d="
M1026.966919,191.021423
	C1026.395996,201.245346 1025.802490,210.992661 1025.198975,220.904572
	C1015.312073,220.904572 1005.716858,220.904572 995.290771,220.904572
	C995.290771,210.653656 995.290771,200.584885 995.290771,190.544785
	C1005.366272,190.544785 1016.155334,190.544785 1026.966919,191.021423
z"/>
</svg>